<svg xmlns="http://www.w3.org/2000/svg" width="900" height="520" viewBox="0 0 900 520" font-family="system-ui" font-size="11">
<style>.body-node{fill:#dfecff;stroke:#3a6ea5}.envelope-node{fill:#ffe6c7;stroke:#a06600}.assets-node{fill:#d8f5d8;stroke:#3a7e3a}.derived-node{fill:#eee;stroke:#999;stroke-dasharray:3,3}.hash-text{font-family:monospace;font-size:10px;fill:#333}.edge{stroke:#888;fill:none;stroke-width:1}text{text-anchor:middle}</style>
<text x="450" y="20" font-weight="bold" font-size="14">AEP integrity envelope — §3.2.1 disjoint hash bases</text>
<text x="200" y="50" font-weight="bold">BODY (data/*)</text>
<text x="450" y="50" font-weight="bold">ENVELOPE (aepkg.json)</text>
<text x="700" y="50" font-weight="bold">ASSETS</text>
<rect class="body-node" x="110" y="65" width="180" height="30" rx="4"/><text x="200" y="78">state_hash</text><text class="hash-text" x="200" y="90">sha256:fbb5a7a5e814…</text><rect class="envelope-node" x="360" y="65" width="180" height="30" rx="4"/><text x="450" y="78">manifest_hash</text><text class="hash-text" x="450" y="90">sha256:d2474b1016ce…</text><rect class="assets-node" x="610" y="65" width="180" height="30" rx="4"/><text x="700" y="78">assets_merkle_root</text><text class="hash-text" x="700" y="90">sha256:21b3d47efb6a…</text><rect class="body-node" x="110" y="128" width="180" height="24" rx="3"/><text x="200" y="144">data/claims.jsonl</text><line class="edge" x1="200" y1="95" x2="200" y2="128"/><rect class="body-node" x="110" y="160" width="180" height="24" rx="3"/><text x="200" y="176">data/relations.jsonl</text><line class="edge" x1="200" y1="95" x2="200" y2="160"/><rect class="body-node" x="110" y="192" width="180" height="24" rx="3"/><text x="200" y="208">data/sources.jsonl</text><line class="edge" x1="200" y1="95" x2="200" y2="192"/><rect class="body-node" x="110" y="224" width="180" height="24" rx="3"/><text x="200" y="240">data/spans.jsonl</text><line class="edge" x1="200" y1="95" x2="200" y2="224"/><rect class="body-node" x="110" y="256" width="180" height="24" rx="3"/><text x="200" y="272">ops/events.jsonl</text><line class="edge" x1="200" y1="95" x2="200" y2="256"/><rect class="body-node" x="110" y="288" width="180" height="24" rx="3"/><text x="200" y="304">reviews/reviews.jsonl</text><line class="edge" x1="200" y1="95" x2="200" y2="288"/><rect class="body-node" x="110" y="320" width="180" height="24" rx="3"/><text x="200" y="336">validations/runs.jsonl</text><line class="edge" x1="200" y1="95" x2="200" y2="320"/><rect class="derived-node" x="360" y="128" width="180" height="24" rx="3"/><text x="450" y="140">canonical_files[]</text><text class="hash-text" x="450" y="150">7 entries</text><line class="edge" x1="450" y1="95" x2="450" y2="128"/><rect class="derived-node" x="360" y="160" width="180" height="24" rx="3"/><text x="450" y="172">packet_id</text><text class="hash-text" x="450" y="182">aepkg:minimal-example</text><line class="edge" x1="450" y1="95" x2="450" y2="160"/><rect class="assets-node" x="610" y="128" width="180" height="24" rx="3" opacity="0.4"/><text x="700" y="144" opacity="0.6">(no assets)</text><text x="450" y="495" font-size="11" fill="#555">Invariant §3.2.1: state_hash MUST NOT reference envelope fields (no self-reference circles)</text></svg>
